<svg width="87" height="71" viewBox="0 0 87 71" fill="none" xmlns="http://www.w3.org/2000/svg">
<path d="M81.6 67H46.4C44 67 42 65 42 62.6V30.3C42 27.9 43.6 25.9 45.7 25.9H47.9V28.8H45.7C45.4 28.8 45 29.4 45 30.3V62.6C45 63.4 45.7 64.1 46.5 64.1H81.7C82.5 64.1 83.2 63.4 83.2 62.6V30.3C83.2 29.4 82.7 28.8 82.5 28.8H80.3V25.9H82.5C84.5 25.9 86.2 27.9 86.2 30.3V62.6C86 65 84 67 81.6 67Z" fill="black"/>
<path d="M52.3 31.8C51.5 31.8 50.8 31.1 50.8 30.3V24.4C50.8 23.6 51.5 22.9 52.3 22.9C53.1 22.9 53.8 23.6 53.8 24.4V30.3C53.7 31.1 53.1 31.8 52.3 31.8ZM75.7 31.8C74.9 31.8 74.2 31.1 74.2 30.3V24.4C74.2 23.6 74.9 22.9 75.7 22.9C76.5 22.9 77.2 23.6 77.2 24.4V30.3C77.2 31.1 76.5 31.8 75.7 31.8ZM56.7 25.9H71.3V28.9H56.7V25.9ZM44.9 34.7H83.1V37.7H44.9V34.7ZM77.2 40.6H80.1V43.5H77.2V40.6ZM71.3 40.6H74.3V43.5H71.3V40.6ZM65.5 40.6H68.4V43.5H65.5V40.6ZM59.6 40.6H62.5V43.5H59.6V40.6ZM53.7 40.6H56.7V43.5H53.7V40.6ZM77.2 46.5H80.1V49.4H77.2V46.5ZM71.3 46.5H74.3V49.4H71.3V46.5ZM65.5 46.5H68.4V49.4H65.5V46.5ZM59.6 46.5H62.5V49.4H59.6V46.5ZM53.7 46.5H56.7V49.4H53.7V46.5ZM47.9 46.5H50.8V49.4H47.9V46.5ZM77.2 52.3H80.1V55.3H77.2V52.3ZM71.3 52.3H74.3V55.3H71.3V52.3ZM65.5 52.3H68.4V55.3H65.5V52.3ZM59.6 52.3H62.5V55.3H59.6V52.3ZM53.7 52.3H56.7V55.3H53.7V52.3ZM47.9 52.3H50.8V55.3H47.9V52.3ZM71.3 58.2H74.3V61.1H71.3V58.2ZM65.5 58.2H68.4V61.1H65.5V58.2ZM59.6 58.2H62.5V61.1H59.6V58.2ZM53.7 58.2H56.7V61.1H53.7V58.2ZM47.9 58.2H50.8V61.1H47.9V58.2Z" fill="black"/>
<path d="M25.121 45.6941C25.8414 44.8632 26.5614 44.0317 27.2674 43.1972L28.1232 42.1975C29.1506 40.8001 30.7213 39.9203 32.427 39.7863C33.427 39.7927 34.3959 40.124 35.1919 40.7318L36.3677 39.2051C36.5011 39.0222 36.7109 38.9138 36.9338 38.9125C37.103 38.9037 37.2696 38.9575 37.4015 39.0642L55.5752 12.9206C56.0528 12.2404 56.8061 11.8132 57.6235 11.7585C58.4433 11.6939 59.2431 12.0153 59.7943 12.6297C60.2166 13.1022 60.4624 13.7109 60.491 14.3512C60.5196 14.9914 60.3287 15.6239 59.9502 16.1407L40.4413 42.5816C40.5678 42.8251 40.5567 43.1201 40.4114 43.3555L39.2468 45.1981C40.61 47.9593 40.432 51.2593 38.7794 53.8806C38.3901 54.5553 37.9522 55.2008 37.4696 55.8106C37.4263 55.8769 37.3743 55.9373 37.316 55.9904C36.8165 56.6556 36.2707 57.2831 35.6818 57.8683C32.596 60.8429 29.008 63.2261 25.0932 64.9019C24.7923 65.0329 24.4443 64.9434 24.2439 64.6835L22.4386 62.4524C22.2955 62.2774 22.242 62.0438 22.2937 61.8209C22.3428 61.5959 22.4878 61.4039 22.6895 61.2971C23.7504 60.7109 24.7315 59.9853 25.6083 59.1397C23.7488 59.8656 21.9632 60.4225 21.8291 60.466C21.5457 60.5528 21.2397 60.4678 21.0407 60.2481L18.35 57.1015L18.3286 57.0646L16.2318 54.4146C16.0947 54.2365 16.0425 54.0058 16.0873 53.7833C16.129 53.5595 16.2755 53.3694 16.4793 53.2742C19.7762 51.2857 22.7025 48.7193 25.121 45.6941ZM37.7586 45.6133C37.5957 45.3636 37.5952 45.0378 37.757 44.7842L38.8518 43.033L36.9735 40.8459L35.8675 42.2812C35.727 42.4556 35.5219 42.5619 35.3014 42.5738C35.0878 42.5749 34.8829 42.4887 34.7341 42.3337C34.1282 41.6942 33.2978 41.3236 32.4207 41.3012C31.1479 41.4445 29.9895 42.1298 29.2346 43.1868L28.3971 44.1755C28.3493 44.2412 28.2913 44.2891 28.2435 44.3549L36.7867 54.2289C37.0326 53.8702 37.2637 53.5071 37.4845 53.1262C38.2117 52.0171 38.6227 50.7266 38.6709 49.3999C38.7197 48.0728 38.4038 46.7618 37.7586 45.6133ZM19.2206 55.781C21.7087 55.4288 24.0471 54.3454 25.9483 52.6639C26.2482 52.395 26.7018 52.4117 26.9765 52.7022C27.2512 52.9932 27.2503 53.4542 26.9742 53.7486C25.0914 55.4485 22.8057 56.6186 20.3472 57.1417L21.8475 58.8876C24.1392 58.2037 26.3569 57.2804 28.465 56.1332C28.7662 55.9013 29.1905 55.9418 29.4389 56.2271C29.6942 56.5011 29.7037 56.9281 29.4601 57.2178C27.9259 59.1189 26.1411 60.7957 24.157 62.202L25.0437 63.2902C28.3727 61.7842 31.4496 59.7517 34.1592 57.2692L27.6472 49.7628C25.8585 51.7984 23.6952 53.4575 21.2806 54.6453C21.1271 54.7105 20.9567 54.7216 20.7964 54.6773C20.5756 54.6247 20.3935 54.4674 20.307 54.2541C20.1474 53.8717 20.3233 53.4275 20.7003 53.2606C22.9627 52.1232 24.9859 50.5448 26.6532 48.6156L25.6019 47.3915C23.3955 50.0322 20.8096 52.3197 17.9324 54.1753L19.2206 55.781ZM35.6153 20.5452C35.2606 20.7592 35.1412 21.2238 35.3486 21.5823L35.7738 22.3172C35.8714 22.4931 36.0348 22.621 36.2278 22.6721C36.4201 22.7237 36.6256 22.6938 36.7983 22.5901C36.9704 22.4862 37.0948 22.3161 37.1439 22.1193C37.1926 21.9219 37.1618 21.714 37.0581 21.5418L36.6329 20.8069C36.4255 20.4484 35.9699 20.3312 35.6153 20.5452ZM32.441 20.3545C32.1817 20.5114 32.0394 20.8109 32.0804 21.113C32.1218 21.4158 32.3382 21.6615 32.6289 21.7362C32.8195 21.7863 33.0225 21.7563 33.192 21.6528L33.919 21.2141C34.093 21.1129 34.2202 20.9461 34.2726 20.7502C34.3247 20.5537 34.2976 20.3451 34.1969 20.1711C34.0959 19.9964 33.9301 19.8716 33.7369 19.8235C33.5431 19.7758 33.3383 19.8089 33.1679 19.9159L32.441 20.3545ZM34.5735 18.723C34.9281 18.509 35.0475 18.045 34.84 17.6865L34.4149 16.9515C34.207 16.5929 33.7508 16.4761 33.3961 16.6906C33.0413 16.9051 32.9223 17.3697 33.1302 17.7284L33.5554 18.4633C33.6555 18.6356 33.8185 18.7592 34.01 18.8079C34.2004 18.8569 34.4035 18.8264 34.5735 18.723ZM37.7478 18.9137C37.9181 18.8109 38.0422 18.6444 38.0923 18.4495C38.1428 18.2552 38.1151 18.0491 38.015 17.8768C37.8077 17.5178 37.3518 17.4 36.9967 17.6139L36.2697 18.0525C35.9146 18.2664 35.7951 18.7309 36.0024 19.0899C36.2097 19.449 36.6657 19.5662 37.0209 19.3524L37.7478 18.9137ZM45.9761 49.0578C45.7159 49.2144 45.573 49.5143 45.6138 49.8174C45.655 50.1206 45.8724 50.3666 46.1637 50.4409C46.3547 50.4895 46.5573 50.4589 46.7277 50.3562L48.181 49.4792C48.5278 49.2617 48.6415 48.8035 48.4366 48.4493C48.2318 48.0946 47.7835 47.9751 47.43 48.1805L45.9761 49.0578ZM49.8547 48.8323C49.5 49.0463 49.3806 49.5108 49.588 49.8693L50.438 51.3385C50.649 51.6891 51.0993 51.8007 51.4496 51.5893C51.8 51.3778 51.9216 50.9212 51.7227 50.5633L50.8728 49.0941C50.6649 48.7354 50.2093 48.6183 49.8547 48.8323ZM52.714 46.7862C52.8843 46.6834 53.0085 46.5164 53.0585 46.3219C53.1086 46.127 53.0809 45.9209 52.9813 45.7488C52.774 45.3897 52.3181 45.272 51.963 45.4859L50.5097 46.3628C50.1546 46.5766 50.0345 47.0415 50.2418 47.4006C50.4491 47.7596 50.9051 47.8769 51.2603 47.663L52.714 46.7862ZM48.8387 47.0172C49.1933 46.8032 49.3128 46.3387 49.1053 45.9802L48.2554 44.511C48.0475 44.1523 47.5915 44.035 47.2362 44.2494C46.8814 44.4639 46.7625 44.9286 46.9704 45.2872L47.8203 46.7564C48.0277 47.1149 48.4838 47.2322 48.8384 47.0182L48.8387 47.0172ZM29.1974 58.8351C28.8887 59.1143 28.8586 59.5929 29.1306 59.9041C29.4022 60.2153 29.8728 60.2416 30.1816 59.9624C31.0975 59.1347 31.9481 58.2353 32.726 57.2726C32.9831 56.944 32.9312 56.4684 32.6102 56.2099C32.2891 55.9515 31.8207 56.0085 31.5635 56.3371C30.8386 57.2296 30.0477 58.0648 29.1974 58.8351ZM15.7104 39.691C16.9738 40.0117 18.3177 39.7322 19.3655 38.9315C19.5622 39.0617 19.7789 39.1583 20.0074 39.217C20.6366 39.3825 21.3079 39.2442 21.8287 38.8415C22.3494 38.4393 22.6613 37.818 22.6743 37.156C22.6878 36.4941 22.4008 35.8654 21.8967 35.4515C21.7456 35.3153 21.5461 35.2477 21.3438 35.2653C21.1415 35.2824 20.9543 35.3829 20.8251 35.5434C20.6961 35.7034 20.6369 35.9096 20.6604 36.1141C20.6844 36.3187 20.7894 36.5038 20.9511 36.6265C21.1447 36.7867 21.2283 37.0475 21.1662 37.2948C21.083 37.5226 20.8865 37.6888 20.6514 37.7299C20.4161 37.7715 20.1782 37.6815 20.028 37.4942C19.9048 37.2997 19.7011 37.1725 19.4739 37.1486C19.2455 37.1276 19.0191 37.2144 18.8606 37.3851C18.2858 38.0157 17.465 38.3538 16.6245 38.3068C15.7836 38.2591 15.0117 37.8313 14.5203 37.1406C14.0289 36.4494 13.87 35.5684 14.0873 34.7394C14.1393 34.523 14.2197 34.3144 14.3264 34.1193C14.5253 33.7716 14.424 33.3299 14.0964 33.1111C13.3908 32.6192 13.1233 31.6908 13.4536 30.8822C13.7839 30.0735 14.6226 29.604 15.4673 29.7547C15.3982 29.9097 15.3402 30.0691 15.294 30.2326C15.0721 31.0896 15.1936 31.9982 15.6313 32.7583C16.0689 33.5189 16.7868 34.0689 17.6277 34.2878C18.0254 34.3901 18.4323 34.145 18.5364 33.7399C18.6406 33.3348 18.4025 32.9239 18.0048 32.8216C17.0474 32.5754 16.4742 31.5847 16.7251 30.609C16.9759 29.6338 17.9559 29.0424 18.9133 29.2886C19.2981 29.387 19.6349 29.6202 19.8648 29.9473C20.0297 30.1813 20.3122 30.298 20.5923 30.248C20.8728 30.1982 21.1021 29.9902 21.1837 29.7128C21.3082 29.3045 21.7112 29.0506 22.1249 29.1203C22.5386 29.1906 22.8341 29.5623 22.815 29.9883C22.7906 30.405 23.1027 30.7601 23.5124 30.7817C23.9221 30.8033 24.2747 30.4835 24.3005 30.0672C24.3361 29.4251 24.1124 28.798 23.6817 28.3307C23.2508 27.8639 22.6503 27.5969 22.0174 27.5917C21.3847 27.5861 20.7753 27.8434 20.3288 28.3029C20.0152 28.0794 19.6635 27.9161 19.2905 27.8218C18.4614 27.6086 17.5794 27.7367 16.8366 28.1791C16.539 27.1142 16.6221 25.9734 17.0712 24.9587C17.5203 23.9435 18.3061 23.1184 19.2903 22.6302C20.2747 22.1416 21.3944 22.0206 22.451 22.2882C23.461 22.5552 24.3504 23.1598 24.9771 24.0046C25.6037 24.8495 25.9318 25.8861 25.9083 26.9485C25.8966 27.3418 26.1828 27.6756 26.5669 27.7168C26.7459 27.7304 26.923 27.7571 27.0977 27.7973C27.9282 28.0109 28.5796 28.6594 28.8067 29.4989C29.0337 30.3389 28.8016 31.2414 28.1976 31.8677C27.5937 32.4934 26.7101 32.7479 25.8795 32.5343C25.4818 32.432 25.075 32.6771 24.9708 33.0822C24.8667 33.4873 25.1048 33.8982 25.5025 34.0005C26.51 34.2617 27.5824 34.1003 28.4786 33.5529C29.3755 33.005 30.0218 32.1164 30.2729 31.0863C30.5244 30.0563 30.359 28.9705 29.8151 28.072C29.2711 27.1736 28.3928 26.5378 27.378 26.3073C27.2468 24.591 26.4207 23.0128 25.0964 21.9497C23.7719 20.8867 22.0677 20.4333 20.3904 20.6982C18.7136 20.9633 17.2136 21.9223 16.2479 23.3472C15.2827 24.7721 14.9389 26.5348 15.2983 28.2151C14.4049 28.178 13.531 28.5087 12.8754 29.1332C12.2194 29.7576 11.8377 30.6226 11.8155 31.5321C11.794 32.4412 12.1345 33.3176 12.7597 33.9621C12.7127 34.0908 12.6719 34.2258 12.6354 34.3677C12.3457 35.4942 12.5075 36.6875 13.084 37.6854C13.6604 38.6833 14.6051 39.4046 15.7104 39.691ZM3.43858 47.4801C3.20852 48.3747 3.33695 49.3223 3.79517 50.1145C4.2534 50.9067 5.00458 51.4787 5.88298 51.7046C6.94586 51.9701 8.07435 51.6928 8.90894 50.9614C9.11711 51.0872 9.34122 51.183 9.57509 51.2468C10.1469 51.3934 10.752 51.3448 11.2968 51.1085C11.8422 50.8723 12.2974 50.4612 12.5931 49.9388C12.6914 49.7642 12.7179 49.5574 12.6668 49.3642C12.6153 49.1708 12.4905 49.0068 12.3195 48.9084C11.9631 48.7032 11.508 48.8322 11.303 49.1956C11.1027 49.5509 10.7429 49.7829 10.3426 49.815C9.94277 49.8468 9.55492 49.6743 9.30877 49.3545C9.06249 49.0351 8.9903 48.6103 9.11579 48.2222C9.24129 47.8341 9.54845 47.5331 9.93473 47.4199C10.3307 47.3029 10.5621 46.8828 10.451 46.4815C10.3395 46.0796 9.92813 45.8487 9.53225 45.9652C8.6104 46.2365 7.89382 46.9804 7.64743 47.9227C7.47755 48.5873 7.56093 49.2903 7.88099 49.8903C7.41777 50.2507 6.82005 50.3787 6.25711 50.2376C5.76061 50.1099 5.3361 49.7861 5.07704 49.3384C4.81797 48.8907 4.74549 48.3553 4.87556 47.8495C4.96793 47.4843 5.16351 47.1535 5.4386 46.8991C5.7132 46.6447 6.0549 46.4771 6.42126 46.4174C6.68411 46.3745 6.90619 46.1924 7.00313 45.9393C7.09958 45.6861 7.05668 45.4013 6.88956 45.1919C6.61788 44.8513 6.52487 44.3976 6.63845 43.9719C6.8393 43.1949 7.61977 42.724 8.38248 42.9195C8.79669 43.0255 9.13638 43.3233 9.29947 43.7244C9.40246 43.9734 9.62886 44.1462 9.89367 44.1777C10.1581 44.2085 10.4201 44.0932 10.5804 43.8753C11.1007 43.1652 11.9149 42.739 12.7827 42.7235C13.6502 42.7079 14.4717 43.1045 15.004 43.7963C15.5358 44.4879 15.7178 45.3953 15.4955 46.2496C15.3914 46.6547 15.6295 47.0656 16.0272 47.1679C16.4244 47.27 16.8312 47.0249 16.9354 46.6198C17.2413 45.4264 17.0351 44.1615 16.3692 43.1401C15.7033 42.1181 14.6393 41.4357 13.4423 41.2619C12.2448 41.088 11.0269 41.4391 10.0907 42.2281C9.72567 41.8489 9.26345 41.5798 8.75523 41.4518C8.00696 41.2599 7.21162 41.3789 6.54432 41.7815C5.87638 42.1846 5.39106 42.8388 5.19463 43.6007C5.05479 44.1385 5.06897 44.7049 5.23548 45.2325C4.34323 45.6805 3.6865 46.502 3.43858 47.4801Z" fill="black"/>
</svg>
