<?xml version="1.0" encoding="UTF-8"?>
<svg width="700pt" height="700pt" version="1.1" viewBox="0 0 700 700" xmlns="http://www.w3.org/2000/svg" xmlns:xlink="http://www.w3.org/1999/xlink">
 <defs>
  <symbol id="g" overflow="visible">
   <path d="m39.078-2.3281c-2.0117 1.043-4.1094 1.8281-6.2969 2.3594s-4.4648 0.79688-6.8281 0.79688c-7.0859 0-12.699-1.9766-16.844-5.9375-4.1367-3.957-6.2031-9.3281-6.2031-16.109 0-6.7891 2.0664-12.164 6.2031-16.125 4.1445-3.9688 9.7578-5.9531 16.844-5.9531 2.3633 0 4.6406 0.26562 6.8281 0.79688s4.2852 1.3242 6.2969 2.375v8.7969c-2.0312-1.3828-4.0391-2.3984-6.0156-3.0469-1.9688-0.64453-4.0469-0.96875-6.2344-0.96875-3.9062 0-6.9844 1.2578-9.2344 3.7656-2.2422 2.5-3.3594 5.9531-3.3594 10.359 0 4.3867 1.1172 7.8359 3.3594 10.344 2.25 2.5 5.3281 3.75 9.2344 3.75 2.1875 0 4.2656-0.32031 6.2344-0.96875 1.9766-0.64453 3.9844-1.6602 6.0156-3.0469z"/>
  </symbol>
  <symbol id="f" overflow="visible">
   <path d="m16.031-40.953v9.0625h10.516v7.2812h-10.516v13.531c0 1.4805 0.28906 2.4805 0.875 3 0.59375 0.52344 1.7656 0.78125 3.5156 0.78125h5.2344v7.2969h-8.7344c-4.0312 0-6.8867-0.83594-8.5625-2.5156-1.6797-1.6875-2.5156-4.5391-2.5156-8.5625v-13.531h-5.0781v-7.2812h5.0781v-9.0625z"/>
  </symbol>
  <symbol id="e" overflow="visible">
   <path d="m26.594-27.234v-17.078h10.266v44.312h-10.266v-4.6094c-1.3984 1.875-2.9453 3.25-4.6406 4.125-1.6875 0.875-3.6406 1.3125-5.8594 1.3125-3.9297 0-7.1562-1.5625-9.6875-4.6875-2.5234-3.125-3.7812-7.1445-3.7812-12.062 0-4.9141 1.2578-8.9375 3.7812-12.062 2.5312-3.125 5.7578-4.6875 9.6875-4.6875 2.1953 0 4.1445 0.44531 5.8438 1.3281 1.707 0.88672 3.2578 2.2578 4.6562 4.1094zm-6.7188 20.656c2.1875 0 3.8516-0.79688 5-2.3906 1.1445-1.5938 1.7188-3.9102 1.7188-6.9531 0-3.0391-0.57422-5.3594-1.7188-6.9531-1.1484-1.5938-2.8125-2.3906-5-2.3906-2.168 0-3.8242 0.79688-4.9688 2.3906-1.1484 1.5938-1.7188 3.9141-1.7188 6.9531 0 3.043 0.57031 5.3594 1.7188 6.9531 1.1445 1.5938 2.8008 2.3906 4.9688 2.3906z"/>
  </symbol>
  <symbol id="d" overflow="visible">
   <path d="m21.875-6.5781c2.1758 0 3.8359-0.79688 4.9844-2.3906 1.1562-1.5938 1.7344-3.9102 1.7344-6.9531 0-3.0391-0.57812-5.3594-1.7344-6.9531-1.1484-1.5938-2.8086-2.3906-4.9844-2.3906-2.1875 0-3.8672 0.80469-5.0312 2.4062-1.168 1.6055-1.75 3.918-1.75 6.9375 0 3.0234 0.58203 5.3359 1.75 6.9375 1.1641 1.6055 2.8438 2.4062 5.0312 2.4062zm-6.7812-20.656c1.4062-1.8516 2.9609-3.2227 4.6719-4.1094 1.707-0.88281 3.6719-1.3281 5.8906-1.3281 3.9375 0 7.1641 1.5625 9.6875 4.6875 2.5195 3.125 3.7812 7.1484 3.7812 12.062 0 4.918-1.2617 8.9375-3.7812 12.062-2.5234 3.125-5.75 4.6875-9.6875 4.6875-2.2188 0-4.1836-0.44531-5.8906-1.3281-1.7109-0.88281-3.2656-2.2539-4.6719-4.1094v4.6094h-10.188v-44.312h10.188z"/>
  </symbol>
  <symbol id="c" overflow="visible">
   <path d="m0.28125-42.516h39.188v8.2812h-14.094v34.234h-10.969v-34.234h-14.125z"/>
  </symbol>
  <symbol id="b" overflow="visible">
   <path d="m36.969-19.422v19.422h-10.25v-14.812c0-2.7891-0.0625-4.707-0.1875-5.75-0.125-1.0391-0.33984-1.8125-0.64062-2.3125-0.39844-0.65625-0.9375-1.1719-1.625-1.5469s-1.4648-0.5625-2.3281-0.5625c-2.1367 0-3.8125 0.82422-5.0312 2.4688-1.2109 1.6484-1.8125 3.9219-1.8125 6.8281v15.688h-10.188v-44.312h10.188v17.078c1.5391-1.8516 3.1719-3.2227 4.8906-4.1094 1.7266-0.88281 3.6406-1.3281 5.7344-1.3281 3.6875 0 6.4844 1.1328 8.3906 3.3906 1.9062 2.2617 2.8594 5.5469 2.8594 9.8594z"/>
  </symbol>
  <symbol id="a" overflow="visible">
   <path d="m5.3594-42.516h10.953v42.516h-10.953z"/>
  </symbol>
 </defs>
 <g>
  <path d="m376.13 366.08c-3.8516-7.582-7.6992-15.168-11.434-22.75l-4.5508-9.1016c-5.0781-12.398-15.297-21.977-28-26.25-7.6133-1.8711-15.625-1.2578-22.863 1.75l-5.9531-13.648c-0.65625-1.6211-2.0391-2.832-3.7305-3.2695-1.2695-0.39062-2.6406-0.30859-3.8516 0.23438l-87.035-229.95c-2.3008-5.9922-7.1914-10.625-13.297-12.602-6.1055-2.0547-12.812-1.1914-18.203 2.3359-4.1328 2.7148-7.1914 6.7852-8.6602 11.508-1.4688 4.7227-1.2539 9.8086 0.61328 14.391l96.602 234.73h-0.003906c-1.4375 1.5742-1.9258 3.7969-1.2812 5.832l5.25 15.984c-15.758 17.988-20.855 42.953-13.418 65.684 1.6406 5.7812 3.707 11.438 6.1836 16.914 0.19922 0.57812 0.47656 1.1289 0.81641 1.6367 2.4961 5.9219 5.418 11.652 8.75 17.148 17.641 28.117 40.254 52.785 66.734 72.801 2.0312 1.5547 4.8516 1.5547 6.8828 0l18.082-13.184c1.4297-1.0312 2.293-2.6719 2.3359-4.4336 0.066407-1.7734-0.66016-3.4844-1.9844-4.668-6.918-6.4102-12.957-13.707-17.969-21.699 12.715 8.9844 25.199 16.566 26.133 17.148h0.003906c1.9844 1.1914 4.4727 1.1445 6.4141-0.11328l26.602-18.316 0.23438-0.23437 21.117-15.75h-0.003906c1.3906-1.0664 2.2422-2.6875 2.3359-4.4336 0.12109-1.75-0.62109-3.4492-1.9844-4.5508-21.172-21.164-38.398-45.934-50.867-73.148zm-95.898-24.852c1.7266-1.5508 2.3672-3.9805 1.6328-6.1836l-4.8984-15.168 18.551-12.715 5.6016 12.832h-0.003906c0.72656 1.5703 2.082 2.7578 3.7344 3.2695 1.6211 0.41797 3.3477 0.16797 4.7812-0.70312 5.8555-3.6094 12.891-4.7812 19.602-3.2656 9.3945 3.5117 16.859 10.848 20.531 20.184l4.4336 8.9844c0.23438 0.58203 0.58203 1.0508 0.81641 1.6328l-84.234 57.285c-1.168-3.1484-2.2148-6.3008-3.1484-9.5664v-0.003906c-3.3594-9.6719-3.9609-20.086-1.7344-30.078 2.2227-9.9961 7.1875-19.172 14.336-26.504zm121.03 111.44c-18.223-7.4023-33.879-19.973-45.043-36.168-1.7539-2.582-5.2344-3.3281-7.8906-1.6875-2.6562 1.6445-3.5508 5.0859-2.0273 7.8125 10.988 16.297 26.074 29.414 43.738 38.035l-14.816 10.148c-16.082-9.5-31.133-20.645-44.914-33.25-1.8359-2.3086-5.1406-2.8203-7.5859-1.168-2.4766 1.5547-3.3828 4.7227-2.0977 7.3516 7.9453 17.129 18.234 33.066 30.566 47.367l-8.8672 6.418v-0.003906c-22.359-17.625-41.773-38.691-57.516-62.414l64.168-43.516-0.003906-0.003906c9.6172 18.621 22.82 35.156 38.852 48.652 1.0391 0.78125 2.3125 1.1914 3.6172 1.168 1.7812 0.03125 3.4727-0.79297 4.5469-2.2188 1.9609-2.5469 1.4922-6.1992-1.0469-8.168-14.973-12.828-27.266-28.488-36.168-46.082l10.383-7.1172c11.609 23.938 26.793 45.969 45.035 65.336zm-55.742-294.38c2.2773 2.2773 2.2773 5.9727 0 8.25l-4.668 4.668v-0.003907c-1.0859 1.125-2.5781 1.7695-4.1445 1.7812-1.5625 0.015625-3.0664-0.60156-4.1758-1.707-1.1055-1.1055-1.7188-2.6133-1.707-4.1758 0.015625-1.5664 0.65625-3.0586 1.7812-4.1445l4.668-4.668c2.2773-2.2773 5.9688-2.2773 8.2461 0zm24.5 4.668c1.6641 1.668 2.1602 4.1758 1.2578 6.3516-0.90625 2.1797-3.0312 3.5977-5.3867 3.5977-1.5469 0.007813-3.0312-0.60547-4.1172-1.7031l-4.668-4.668v0.003907c-1.125-1.0898-1.7656-2.582-1.7812-4.1445-0.011719-1.5664 0.60156-3.0703 1.707-4.1758 1.1094-1.1094 2.6133-1.7227 4.1758-1.7109 1.5664 0.015625 3.0586 0.65625 4.1445 1.7812zm-13.02-16.266c-2.2773-2.2773-2.2773-5.9688 0-8.2461l4.668-4.668c2.2812-2.2773 5.9766-2.2734 8.2539 0.007812s2.2734 5.9766-0.007813 8.2539l-4.668 4.668 0.003906-0.003907c-1.0977 1.0938-2.582 1.707-4.1328 1.7031-1.543 0-3.0273-0.61719-4.1172-1.7148zm-24.5-4.668v0.003906c-1.0938-1.0938-1.7109-2.5781-1.7109-4.1289-0.003906-1.5469 0.60938-3.0312 1.707-4.125 2.2773-2.2812 5.9727-2.2852 8.2539-0.007813l4.668 4.668h-0.003907c2.2812 2.2773 2.2852 5.9727 0.007813 8.2539s-5.9727 2.2812-8.2539 0.003906zm-121.46 209.14c1.6719 1.668 2.1719 4.1797 1.2695 6.3633-0.90625 2.1836-3.0391 3.6016-5.3984 3.5977-1.5469-0.003906-3.0273-0.62109-4.1211-1.7148l-9.332-9.332c-2.2109-2.2891-2.1797-5.9258 0.070313-8.1758 2.25-2.2539 5.8906-2.2852 8.1758-0.074219zm-29.039-9.125c2.2773 2.2773 2.2773 5.9727 0 8.25l-9.332 9.332c-2.2891 2.2109-5.9297 2.1797-8.1797-0.070312s-2.2812-5.8906-0.070312-8.1797l9.332-9.332c2.2812-2.2773 5.9727-2.2773 8.25 0zm-17.734-20.754c-1.0938-1.0938-1.7109-2.5781-1.7109-4.125 0-1.5508 0.61328-3.0352 1.707-4.1289 2.2773-2.2812 5.9727-2.2852 8.2539-0.007812l9.332 9.332v0.003906c2.2812 2.2773 2.2852 5.9727 0.007813 8.2539-2.2773 2.2812-5.9727 2.2812-8.2539 0.003906zm29.004 9.1602v-0.003907c-2.2773-2.2773-2.2773-5.9688 0-8.2461l9.332-9.332v-0.003907c2.2812-2.2773 5.9766-2.2734 8.2578 0.007813 2.2773 2.2812 2.2734 5.9766-0.007813 8.2539l-9.332 9.332c-2.2773 2.2773-5.9727 2.2773-8.25 0zm126.19 125.87c1.8008 2.6758 1.0938 6.3047-1.582 8.1055-2.6719 1.8008-6.3008 1.0938-8.1016-1.582-5.3438-7.9336-10.051-16.277-14.082-24.953-1.3125-2.9453 0.011719-6.3945 2.957-7.707 2.9453-1.3125 6.3945 0.011718 7.707 2.957 3.7656 8.0508 8.1445 15.801 13.102 23.18zm139.93-116.97c-10.23-0.03125-19.898-4.6953-26.297-12.68-1.75 0.59375-3.5859 0.89844-5.4375 0.89844-5.1055 0.027344-9.9375-2.293-13.109-6.2969-3.1719-4-4.3281-9.2344-3.1328-14.199 1.1914-4.9648 4.6016-9.1055 9.2422-11.227 1.4141-0.72656 3.0625-0.84766 4.5664-0.32812 1.5039 0.51562 2.7305 1.625 3.3984 3.0703 0.66797 1.4414 0.71484 3.0938 0.13672 4.5742-0.58203 1.4805-1.7422 2.6602-3.2109 3.2656-1.7852 0.82422-2.9297 2.6094-2.9414 4.5742 0.1875 1.8594 1.3555 3.4766 3.0625 4.2344 1.707 0.76172 3.6914 0.54688 5.1992-0.5625 1.3164-1.2148 3.1133-1.7734 4.8867-1.5156 1.7773 0.28125 3.3281 1.3633 4.1992 2.9414 3.1367 5.8086 8.7148 9.9062 15.195 11.168 6.4844 1.2578 13.188-0.45312 18.273-4.6641 5.0859-4.2148 8.0156-10.484 7.9844-17.086 0.027344-1.7148-0.17578-3.4258-0.60547-5.0859-0.83203-2.9766 0.80078-6.0781 3.7188-7.082 6.3242-2.3164 10.172-8.7305 9.2422-15.398-0.92969-6.668-6.3867-11.781-13.102-12.277 0.22266 1.2891 0.35156 2.5898 0.38281 3.8984 0.011719 6.8203-2.6875 13.367-7.5 18.199-4.8125 4.8359-11.344 7.5625-18.164 7.582-3.2227 0-5.8359-2.6094-5.8359-5.832 0-3.2227 2.6133-5.832 5.8359-5.832 7.7578 0 14.051-6.293 14.051-14.055 0-7.7578-6.293-14.051-14.051-14.051-3.1172-0.003906-6.1328 1.0898-8.5195 3.0898-1.7109 1.4297-4.0859 1.7578-6.1172 0.84766-2.0352-0.91016-3.3711-2.9023-3.4492-5.1289-0.14844-3.2852-2.7148-5.9531-5.9961-6.2266-3.2812-0.26953-6.2539 1.9375-6.9414 5.1523-0.62891 3.1562-3.6953 5.207-6.8516 4.582s-5.2109-3.6875-4.5938-6.8438c0.98438-4.8594 3.9102-9.1094 8.0977-11.77 4.1875-2.6562 9.2734-3.4961 14.094-2.3203 4.8203 1.1719 8.9492 4.2617 11.445 8.5469 2.8203-1.0664 5.8125-1.6094 8.832-1.5977 6.7188 0 13.172 2.6484 17.953 7.375 4.3438-7.375 5.9414-16.047 4.5117-24.48-1.4297-8.4375-5.7891-16.102-12.316-21.633-6.5273-5.5352-14.801-8.5859-23.355-8.6172-8.1992 0.054687-16.141 2.8594-22.555 7.9609-6.4141 5.1016-10.934 12.207-12.832 20.18-0.67969 2.957-3.5078 4.8984-6.5078 4.4688-1.3867-0.24219-2.7852-0.38281-4.1914-0.41797-6.7305 0-12.949 3.5898-16.316 9.418-3.3672 5.832-3.3672 13.012 0 18.844 3.3672 5.8281 9.5859 9.4219 16.316 9.4219 3.2227 0 5.8359 2.6094 5.8359 5.832s-2.6133 5.832-5.8359 5.832c-8.168 0.015625-16.004-3.2461-21.746-9.0508-5.7461-5.8086-8.9219-13.68-8.8164-21.848 0.10156-8.168 3.4805-15.953 9.3711-21.613 5.8906-5.6602 13.809-8.7188 21.973-8.4922 4.3516-12.555 13.715-22.746 25.859-28.137 12.145-5.3906 25.984-5.5039 38.215-0.30859 12.227 5.1953 21.754 15.23 26.309 27.715 4.5508 12.484 3.7188 26.297-2.2969 38.145 6.8633 1.4375 12.859 5.582 16.621 11.5 3.7656 5.918 4.9766 13.105 3.3672 19.934-1.6133 6.8242-5.9141 12.711-11.926 16.32 0.10547 1.0508 0.15234 2.1367 0.15234 3.2656h-0.003906c0 8.9609-3.5586 17.555-9.8906 23.895s-14.922 9.9102-23.883 9.9258zm78.051 81.668c0 7.1172-2.8281 13.941-7.8594 18.973s-11.859 7.8594-18.977 7.8594c-8.5977-0.058594-16.633-4.293-21.547-11.352-1.8281 0.53906-3.7188 0.82422-5.6211 0.85156-4.6328-0.003906-9.1367-1.5273-12.816-4.3359-3.6836-2.8086-6.3398-6.75-7.5664-11.215-0.40625-1.4922-0.20312-3.0859 0.5625-4.4297 0.76953-1.3438 2.0391-2.3281 3.5312-2.7344 3.1094-0.84766 6.3164 0.98828 7.1641 4.0938 0.82812 3.0352 3.1094 5.457 6.0898 6.4648 2.9766 1.0039 6.2617 0.46094 8.7578-1.4531 2.4961-1.9102 3.875-4.9414 3.6797-8.0781-0.19531-3.1367-1.9414-5.9727-4.6562-7.5586-2.7812-1.6328-3.7188-5.2109-2.0898-7.9922 1.6328-2.7852 5.2109-3.7188 7.9922-2.0898 6.4766 3.793 10.469 10.719 10.5 18.223-0.007812 5.2852-2.0156 10.371-5.6211 14.234 2.8164 3.5781 7.1094 5.6797 11.664 5.707 4.0234 0 7.8828-1.6016 10.727-4.4453s4.4414-6.6992 4.4414-10.723c0.011719-2.9023-0.82812-5.7461-2.4219-8.1719-1.5898-2.4258-3.8594-4.332-6.5273-5.4805-1.9141-0.82422-3.2461-2.6094-3.4883-4.6836-0.23828-2.0742 0.64453-4.1172 2.3242-5.3594 2.7305-2.0195 4.3242-5.2266 4.293-8.6211-0.007812-6.1836-5.0195-11.195-11.199-11.199-3.3555-0.003906-6.5195 1.5664-8.543 4.2461-1.2695 1.6602-3.3281 2.5156-5.4023 2.2422-2.0703-0.27734-3.8359-1.6406-4.6289-3.5742-2.5664-6.2969-7.9219-11.039-14.488-12.82-6.5625-1.7812-13.582-0.39844-18.98 3.7422-5.3945 4.1406-8.5508 10.562-8.5312 17.363 0 3.2227-2.6133 5.832-5.8359 5.832-3.2188 0-5.832-2.6094-5.832-5.832 0.007812-9.4922 4.0469-18.535 11.105-24.879 7.0586-6.3477 16.48-9.3984 25.918-8.3984 9.4414 1 18.012 5.957 23.586 13.641 3.5156-2.1289 7.5547-3.25 11.668-3.2305 6.0625 0.003907 11.875 2.418 16.16 6.7031 4.2891 4.2891 6.6992 10.102 6.7031 16.164 0.011719 4.2812-1.2031 8.4805-3.5 12.098 5.9062 5.0547 9.293 12.445 9.2656 20.219z"/>
  <use x="70" y="735" xlink:href="#g"/>
  <use x="220.503906" y="735" xlink:href="#f"/>
  <use x="287.953125" y="735" xlink:href="#e"/>
  <use x="350.015625" y="735" xlink:href="#d"/>
  <use x="450.105469" y="735" xlink:href="#c"/>
  <use x="489.898437" y="735" xlink:href="#b"/>
  <use x="591.296875" y="735" xlink:href="#a"/>
 </g>
</svg>
